<?xml version="1.0" standalone="no"?>
<!DOCTYPE svg PUBLIC "-//W3C//DTD SVG 20010904//EN"
 "http://www.w3.org/TR/2001/REC-SVG-20010904/DTD/svg10.dtd">
<svg version="1.0" xmlns="http://www.w3.org/2000/svg"
 width="96.000000pt" height="96.000000pt" viewBox="0 0 96.000000 96.000000"
 preserveAspectRatio="xMidYMid meet">
<metadata>
Created by potrace 1.14, written by Peter Selinger 2001-2017
</metadata>
<g transform="translate(0.000000,96.000000) scale(0.100000,-0.100000)"
fill="#000000" stroke="none">
<path d="M171 943 c-33 -11 -42 -20 -60 -53 -4 -8 -7 -195 -6 -415 1 -429 1
-429 53 -456 33 -18 597 -18 640 0 57 24 57 31 57 467 -1 428 -1 428 -52 455
-32 17 -582 19 -632 2z m619 -50 c20 -14 20 -22 20 -407 0 -323 -3 -396 -14
-412 -14 -18 -30 -19 -309 -21 -245 -1 -299 1 -316 14 -21 14 -21 20 -21 413
0 392 0 399 21 413 30 22 588 21 619 0z"/>
<path d="M240 816 c-15 -15 -12 -123 3 -133 6 -4 115 -8 240 -8 196 -1 230 1
236 15 14 27 13 118 -1 126 -19 12 -467 11 -478 0z m440 -66 l0 -30 -200 0
-200 0 0 30 0 30 200 0 200 0 0 -30z"/>
<path d="M237 624 c-12 -13 -8 -112 6 -121 19 -12 107 -10 118 3 6 7 9 36 7
66 l-3 53 -60 3 c-34 2 -64 0 -68 -4z"/>
<path d="M417 624 c-12 -12 -8 -111 6 -122 15 -12 105 -8 118 5 6 6 9 34 7 64
l-3 54 -60 3 c-34 2 -64 0 -68 -4z"/>
<path d="M596 615 c-11 -29 -7 -102 7 -113 13 -10 98 -9 117 3 7 4 10 29 8 63
l-3 57 -61 3 c-49 2 -63 0 -68 -13z"/>
<path d="M236 434 c-11 -28 -6 -101 7 -111 13 -11 96 -12 113 -1 12 8 18 80 9
109 -5 16 -16 19 -65 19 -44 0 -59 -4 -64 -16z"/>
<path d="M416 434 c-11 -28 -6 -101 7 -111 14 -12 96 -12 115 0 12 8 17 83 6
111 -9 23 -119 23 -128 0z"/>
<path d="M597 436 c-12 -31 -7 -284 6 -294 12 -10 98 -9 116 2 6 4 9 65 8 154
l-2 147 -61 3 c-48 2 -63 -1 -67 -12z"/>
<path d="M238 258 c-11 -32 -9 -106 4 -114 21 -13 107 -12 119 2 5 7 9 36 7
66 l-3 53 -61 3 c-44 2 -63 -1 -66 -10z"/>
<path d="M416 255 c-11 -29 -6 -104 7 -112 19 -12 107 -10 118 3 6 7 9 36 7
66 l-3 53 -61 3 c-49 2 -63 0 -68 -13z"/>
</g>
</svg>
